<svg width="16" height="16" viewBox="0 0 16 16" fill="none" xmlns="http://www.w3.org/2000/svg">
<path fill-rule="evenodd" clip-rule="evenodd" d="M2.62478 2.63241L0.183832 3.00007L0 1.7796L3.66142 1.22811L4.21291 4.88952L2.99244 5.07335L2.62478 2.63241Z" fill="#55BB06"/>
<path fill-rule="evenodd" clip-rule="evenodd" d="M3.50024 1.53122C1.45478 2.96012 0.1168 5.33204 0.1168 8.01646C0.1168 12.3825 3.65618 15.9219 8.02223 15.9219C12.3883 15.9219 15.9277 12.3825 15.9277 8.01646C15.9277 3.66303 12.4087 0.131501 8.06009 0.111112L8.03504 1.11103C11.8429 1.11795 14.9277 4.20696 14.9277 8.01646C14.9277 11.8302 11.836 14.9219 8.02223 14.9219C4.20847 14.9219 1.1168 11.8302 1.1168 8.01646C1.1168 5.82677 2.13598 3.87512 3.72584 2.61001L3.50024 2.61582V1.9987V1.53122Z" fill="#55BB06"/>
</svg>
